<?xml version="1.0" encoding="UTF-8" standalone="no"?>
<!-- Created with Inkscape (http://www.inkscape.org/) -->

<svg
   xmlns:dc="http://purl.org/dc/elements/1.1/"
   xmlns:cc="http://creativecommons.org/ns#"
   xmlns:rdf="http://www.w3.org/1999/02/22-rdf-syntax-ns#"
   xmlns:svg="http://www.w3.org/2000/svg"
   xmlns="http://www.w3.org/2000/svg"
   version="1.1"
   width="744.09448"
   height="1052.3622"
   id="svg3063">
  <defs
     id="defs3065" />
  <metadata
     id="metadata3068">
    <rdf:RDF>
      <cc:Work
         rdf:about="">
        <dc:format>image/svg+xml</dc:format>
        <dc:type
           rdf:resource="http://purl.org/dc/dcmitype/StillImage" />
        <dc:title></dc:title>
      </cc:Work>
    </rdf:RDF>
  </metadata>
  <g
     id="layer1">
    <path
       d="m 654.81738,608.98562 c 0,113.9564 -89.39103,206.29325 -199.71186,206.29325 -110.32083,0 -199.71185,-92.33685 -199.71185,-206.29325 0,-113.95639 89.39102,-206.29325 199.71185,-206.29325 110.32083,0 199.71186,92.33686 199.71186,206.29325 z"
       id="path28"
       style="fill:#808080;fill-opacity:1;fill-rule:nonzero;stroke:none" />
    <path
       d="M 455.10552,608.98562 801.00647,402.69237"
       id="path30"
       style="fill:none;stroke:#ff0000;stroke-width:40.5951767;stroke-linecap:round;stroke-linejoin:miter;stroke-miterlimit:10;stroke-opacity:1;stroke-dasharray:none" />
    <path
       d="m 840.94883,402.69237 c 0,22.77477 -17.89417,41.25865 -39.94236,41.25865 -22.04819,0 -39.94238,-18.48388 -39.94238,-41.25865 0,-22.77478 17.89419,-41.25866 39.94238,-41.25866 22.04819,0 39.94236,18.48388 39.94236,41.25866 z"
       id="path32"
       style="fill:#ff0000;fill-opacity:1;fill-rule:nonzero;stroke:none" />
    <path
       d="m 840.94883,402.69237 c 0,22.77477 -17.89417,41.25865 -39.94236,41.25865 -22.04819,0 -39.94238,-18.48388 -39.94238,-41.25865 0,-22.77478 17.89419,-41.25866 39.94238,-41.25866 22.04819,0 39.94236,18.48388 39.94236,41.25866 z"
       id="path34"
       style="fill:none;stroke:#ff0000;stroke-width:40.59500122;stroke-linecap:round;stroke-linejoin:miter;stroke-miterlimit:10;stroke-opacity:1;stroke-dasharray:none" />
    <path
       d="m 455.10552,608.98562 0,165.0346"
       id="path36"
       style="fill:none;stroke:#c8c8c8;stroke-width:40.5951767;stroke-linecap:round;stroke-linejoin:miter;stroke-miterlimit:10;stroke-opacity:1;stroke-dasharray:none" />
    <path
       d="m 495.04789,774.02022 c 0,22.77478 -17.89417,41.25865 -39.94237,41.25865 -22.04819,0 -39.94237,-18.48387 -39.94237,-41.25865 0,-22.77478 17.89418,-41.25864 39.94237,-41.25864 22.0482,0 39.94237,18.48386 39.94237,41.25864 z"
       id="path38"
       style="fill:#c8c8c8;fill-opacity:1;fill-rule:nonzero;stroke:none" />
    <path
       d="m 495.04789,774.02022 c 0,22.77478 -17.89417,41.25865 -39.94237,41.25865 -22.04819,0 -39.94237,-18.48387 -39.94237,-41.25865 0,-22.77478 17.89418,-41.25864 39.94237,-41.25864 22.0482,0 39.94237,18.48386 39.94237,41.25864 z"
       id="path40"
       style="fill:none;stroke:#c8c8c8;stroke-width:40.59500122;stroke-linecap:round;stroke-linejoin:miter;stroke-miterlimit:10;stroke-opacity:1;stroke-dasharray:none" />
    <path
       d="M 455.10552,608.98562 247.56496,485.20967"
       id="path42"
       style="fill:none;stroke:#0000ff;stroke-width:40.5951767;stroke-linecap:round;stroke-linejoin:miter;stroke-miterlimit:10;stroke-opacity:1;stroke-dasharray:none" />
    <path
       d="m 287.50733,485.20967 c 0,22.77477 -17.89419,41.25865 -39.94237,41.25865 -22.04819,0 -39.94238,-18.48388 -39.94238,-41.25865 0,-22.77478 17.89419,-41.25865 39.94238,-41.25865 22.04818,0 39.94237,18.48387 39.94237,41.25865 z"
       id="path44"
       style="fill:#0000ff;fill-opacity:1;fill-rule:nonzero;stroke:none" />
    <path
       d="m 287.50733,485.20967 c 0,22.77477 -17.89419,41.25865 -39.94237,41.25865 -22.04819,0 -39.94238,-18.48388 -39.94238,-41.25865 0,-22.77478 17.89419,-41.25865 39.94238,-41.25865 22.04818,0 39.94237,18.48387 39.94237,41.25865 z"
       id="path46"
       style="fill:none;stroke:#0000ff;stroke-width:40.59500122;stroke-linecap:round;stroke-linejoin:miter;stroke-miterlimit:10;stroke-opacity:1;stroke-dasharray:none" />
    <path
       d="m 475.07671,608.98562 c 0,11.38739 -8.9471,20.62933 -19.97119,20.62933 -11.0241,0 -19.97119,-9.24194 -19.97119,-20.62933 0,-11.38739 8.94709,-20.62932 19.97119,-20.62932 11.02409,0 19.97119,9.24193 19.97119,20.62932 z"
       id="path48"
       style="fill:#000000;fill-opacity:1;fill-rule:nonzero;stroke:none" />
    <path
       d="m 475.07671,608.98562 c 0,11.38739 -8.9471,20.62933 -19.97119,20.62933 -11.0241,0 -19.97119,-9.24194 -19.97119,-20.62933 0,-11.38739 8.94709,-20.62932 19.97119,-20.62932 11.02409,0 19.97119,9.24193 19.97119,20.62932 z"
       id="path50"
       style="fill:none;stroke:#000000;stroke-width:40.59500122;stroke-linecap:round;stroke-linejoin:miter;stroke-miterlimit:10;stroke-opacity:1;stroke-dasharray:none" />
  </g>
</svg>
